<svg xmlns="http://www.w3.org/2000/svg" version="1.1" xmlns:xlink="http://www.w3.org/1999/xlink" xmlns:svgjs="http://svgjs.dev/svgjs" width="1000" height="1000" viewBox="0 0 1000 1000"><rect width="1000" height="1000" fill="#fafafa"></rect><g transform="matrix(0.7,0,0,0.7,149.90044910179654,149.90044910179637)"><svg viewBox="0 0 334 334" data-background-color="#fafafa" preserveAspectRatio="xMidYMid meet" height="1000" width="1000" xmlns="http://www.w3.org/2000/svg" xmlns:xlink="http://www.w3.org/1999/xlink"><g id="tight-bounds" transform="matrix(1,0,0,1,0.04749999999998522,0.04750000000001364)"><svg viewBox="0 0 333.90454557049503 333.90454557049503" height="333.90454557049503" width="333.90454557049503"><g><svg></svg></g><g><svg viewBox="0 0 333.90454557049503 333.90454557049503" height="333.90454557049503" width="333.90454557049503"><g><path d="M0 166.952c0-92.205 74.747-166.952 166.952-166.952 92.205 0 166.952 74.747 166.953 166.952 0 92.205-74.747 166.952-166.953 166.953-92.205 0-166.952-74.747-166.952-166.953zM166.952 329.508c89.777 0 162.556-72.779 162.556-162.556 0-89.777-72.779-162.556-162.556-162.555-89.777 0-162.556 72.779-162.555 162.555 0 89.777 72.779 162.556 162.555 162.556z" data-fill-palette-color="tertiary" fill="#130912" stroke="transparent"></path><ellipse rx="160.27418187383762" ry="160.27418187383762" cx="166.95227278524752" cy="166.95227278524752" fill="#130912" stroke="transparent" stroke-width="0" fill-opacity="1" data-fill-palette-color="tertiary"></ellipse></g><g transform="matrix(1,0,0,1,99.49862072545228,71.17305217166896)"><svg viewBox="0 0 134.90730411959046 191.55844122715712" height="191.55844122715712" width="134.90730411959046"><g><svg viewBox="0 0 134.90730411959046 191.55844122715712" height="191.55844122715712" width="134.90730411959046"><g><svg viewBox="0 0 213.1584412271571 302.66929579801285" height="191.55844122715712" width="134.90730411959046"><g transform="matrix(1,0,0,1,0,183.23883014296732)"><svg viewBox="0 0 213.1584412271571 119.43046565504557" height="119.43046565504557" width="213.1584412271571"><g id="textblocktransform"><svg viewBox="0 0 213.1584412271571 119.43046565504557" height="119.43046565504557" width="213.1584412271571" id="textblock"><g><svg viewBox="0 0 213.1584412271571 77.03420342472059" height="77.03420342472059" width="213.1584412271571"><g transform="matrix(1,0,0,1,0,0)"><svg width="213.1584412271571" viewBox="3.799999952316284 -33.20000076293945 93.23999786376953 33.70000076293945" height="77.03420342472059" data-palette-color="#fafafa"><path d="M8-9.1L8-20.9 3.8-20.9 3.8-23.4 8-23.4 8-29.15 10.65-29.65 10.65-23.4 20.15-23.4 20.15-20.9 10.65-20.9 10.65-9.2Q10.65-5.3 11.43-3.7 12.2-2.1 14.6-2.1 17-2.1 19.9-3.05L19.9-3.05 20.5-0.55Q17.6 0.5 15.1 0.5 12.6 0.5 11.18-0.15 9.75-0.8 9.08-2.23 8.4-3.65 8.2-5.15 8-6.65 8-9.1L8-9.1ZM27.95-11.8Q27.95-24.05 37.5-24.05 47.05-24.05 47.05-11.8 47.05 0.45 37.5 0.45 27.95 0.45 27.95-11.8ZM37.5-21.45Q30.8-21.45 30.8-11.8 30.8-2.15 37.5-2.15 44.2-2.15 44.2-11.8 44.2-21.45 37.5-21.45ZM68.75-33.2L71.4-33.2 71.4-4.15 71.9 0.2 69.34 0.5 68.84-2.15Q65.09 0.45 61.95 0.45L61.95 0.45Q57.5 0.45 55.02-2.85 52.55-6.15 52.55-11.83 52.55-17.5 55.3-20.78 58.05-24.05 62.8-24.05L62.8-24.05Q65.59-24.05 68.75-22.7L68.75-22.7 68.75-33.2ZM55.4-11.9Q55.4-7.5 57.12-4.83 58.85-2.15 62.1-2.15 65.34-2.15 68.75-5L68.75-5 68.75-20Q67.7-20.5 65.87-20.98 64.05-21.45 62.9-21.45L62.9-21.45Q59.35-21.45 57.37-18.88 55.4-16.3 55.4-11.9ZM77.94-11.8Q77.94-24.05 87.49-24.05 97.04-24.05 97.04-11.8 97.04 0.45 87.49 0.45 77.94 0.45 77.94-11.8ZM87.49-21.45Q80.79-21.45 80.79-11.8 80.79-2.15 87.49-2.15 94.19-2.15 94.19-11.8 94.19-21.45 87.49-21.45Z" opacity="1" transform="matrix(1,0,0,1,0,0)" fill="#fafafa" class="undefined-text-0" data-fill-palette-color="quaternary" id="text-0"></path></svg></g></svg></g><g transform="matrix(1,0,0,1,0,95.22013003241493)"><svg viewBox="0 0 213.1584412271571 24.210335622630645" height="24.210335622630645" width="213.1584412271571"><g transform="matrix(1,0,0,1,0,0)"><svg width="213.1584412271571" viewBox="5.699999809265137 -37.349998474121094 416.40997314453125 47.29999923706055" height="24.210335622630645" data-palette-color="#fafafa"><path d="M27.75-18.05Q31.2-17.3 33.08-15.08 34.95-12.85 34.95-9.35L34.95-9.35Q34.95-4.85 31.63-2.43 28.3 0 21.8 0L21.8 0 5.7 0 5.7-35 20.8-35Q26.65-35 29.88-32.65 33.1-30.3 33.1-26L33.1-26Q33.1-23.1 31.68-21.08 30.25-19.05 27.75-18.05L27.75-18.05ZM20.55-31.95L9.4-31.95 9.4-19.25 20.55-19.25Q24.8-19.25 27.1-20.88 29.4-22.5 29.4-25.6L29.4-25.6Q29.4-28.7 27.1-30.33 24.8-31.95 20.55-31.95L20.55-31.95ZM21.75-3.05Q26.45-3.05 28.85-4.65 31.25-6.25 31.25-9.65L31.25-9.65Q31.25-16.2 21.75-16.2L21.75-16.2 9.4-16.2 9.4-3.05 21.75-3.05ZM65.6-13.15L65.55-12.05 43.55-12.05Q43.85-7.95 46.7-5.43 49.55-2.9 53.9-2.9L53.9-2.9Q56.35-2.9 58.4-3.78 60.45-4.65 61.95-6.35L61.95-6.35 63.95-4.05Q62.2-1.95 59.57-0.85 56.95 0.25 53.8 0.25L53.8 0.25Q49.75 0.25 46.62-1.48 43.5-3.2 41.75-6.25 40-9.3 40-13.15L40-13.15Q40-17 41.67-20.05 43.35-23.1 46.27-24.8 49.2-26.5 52.85-26.5L52.85-26.5Q56.5-26.5 59.4-24.8 62.3-23.1 63.95-20.08 65.6-17.05 65.6-13.15L65.6-13.15ZM52.85-23.45Q49.05-23.45 46.47-21.03 43.9-18.6 43.55-14.7L43.55-14.7 62.2-14.7Q61.85-18.6 59.27-21.03 56.7-23.45 52.85-23.45L52.85-23.45ZM79.9 0.25Q76.7 0.25 73.77-0.68 70.85-1.6 69.2-3L69.2-3 70.8-5.8Q72.45-4.5 74.95-3.68 77.45-2.85 80.15-2.85L80.15-2.85Q83.75-2.85 85.47-3.98 87.2-5.1 87.2-7.15L87.2-7.15Q87.2-8.6 86.25-9.43 85.3-10.25 83.85-10.68 82.4-11.1 80-11.5L80-11.5Q76.8-12.1 74.85-12.73 72.9-13.35 71.52-14.85 70.15-16.35 70.15-19L70.15-19Q70.15-22.3 72.9-24.4 75.65-26.5 80.55-26.5L80.55-26.5Q83.1-26.5 85.65-25.83 88.2-25.15 89.85-24.05L89.85-24.05 88.3-21.2Q85.05-23.45 80.55-23.45L80.55-23.45Q77.15-23.45 75.42-22.25 73.7-21.05 73.7-19.1L73.7-19.1Q73.7-17.6 74.67-16.7 75.65-15.8 77.1-15.38 78.55-14.95 81.1-14.5L81.1-14.5Q84.25-13.9 86.15-13.3 88.05-12.7 89.4-11.25 90.75-9.8 90.75-7.25L90.75-7.25Q90.75-3.8 87.87-1.78 85 0.25 79.9 0.25L79.9 0.25ZM109.89-4.15L111.14-1.6Q110.14-0.7 108.67-0.23 107.19 0.25 105.59 0.25L105.59 0.25Q101.89 0.25 99.89-1.75 97.89-3.75 97.89-7.4L97.89-7.4 97.89-23.3 93.19-23.3 93.19-26.3 97.89-26.3 97.89-32.05 101.44-32.05 101.44-26.3 109.44-26.3 109.44-23.3 101.44-23.3 101.44-7.6Q101.44-5.25 102.62-4.03 103.79-2.8 105.99-2.8L105.99-2.8Q107.09-2.8 108.12-3.15 109.14-3.5 109.89-4.15L109.89-4.15ZM143.29-4.15L144.54-1.6Q143.54-0.7 142.06-0.23 140.59 0.25 138.99 0.25L138.99 0.25Q135.29 0.25 133.29-1.75 131.29-3.75 131.29-7.4L131.29-7.4 131.29-23.3 126.59-23.3 126.59-26.3 131.29-26.3 131.29-32.05 134.84-32.05 134.84-26.3 142.84-26.3 142.84-23.3 134.84-23.3 134.84-7.6Q134.84-5.25 136.01-4.03 137.19-2.8 139.39-2.8L139.39-2.8Q140.49-2.8 141.51-3.15 142.54-3.5 143.29-4.15L143.29-4.15ZM160.79 0.25Q156.99 0.25 153.94-1.48 150.89-3.2 149.14-6.25 147.39-9.3 147.39-13.15L147.39-13.15Q147.39-17 149.14-20.05 150.89-23.1 153.94-24.8 156.99-26.5 160.79-26.5L160.79-26.5Q164.59-26.5 167.64-24.8 170.69-23.1 172.41-20.05 174.14-17 174.14-13.15L174.14-13.15Q174.14-9.3 172.41-6.25 170.69-3.2 167.64-1.48 164.59 0.25 160.79 0.25L160.79 0.25ZM160.79-2.9Q163.59-2.9 165.81-4.17 168.04-5.45 169.29-7.8 170.54-10.15 170.54-13.15L170.54-13.15Q170.54-16.15 169.29-18.5 168.04-20.85 165.81-22.13 163.59-23.4 160.79-23.4L160.79-23.4Q157.99-23.4 155.76-22.13 153.54-20.85 152.26-18.5 150.99-16.15 150.99-13.15L150.99-13.15Q150.99-10.15 152.26-7.8 153.54-5.45 155.76-4.17 157.99-2.9 160.79-2.9L160.79-2.9ZM201.83-37.1L205.38-37.1 205.38 0 201.98 0 201.98-5.2Q200.38-2.55 197.76-1.15 195.13 0.25 191.83 0.25L191.83 0.25Q188.13 0.25 185.13-1.45 182.13-3.15 180.43-6.2 178.73-9.25 178.73-13.15L178.73-13.15Q178.73-17.05 180.43-20.1 182.13-23.15 185.13-24.83 188.13-26.5 191.83-26.5L191.83-26.5Q195.03-26.5 197.61-25.18 200.18-23.85 201.83-21.3L201.83-21.3 201.83-37.1ZM192.13-2.9Q194.88-2.9 197.11-4.17 199.33-5.45 200.61-7.8 201.88-10.15 201.88-13.15L201.88-13.15Q201.88-16.15 200.61-18.5 199.33-20.85 197.11-22.13 194.88-23.4 192.13-23.4L192.13-23.4Q189.33-23.4 187.11-22.13 184.88-20.85 183.61-18.5 182.33-16.15 182.33-13.15L182.33-13.15Q182.33-10.15 183.61-7.8 184.88-5.45 187.11-4.17 189.33-2.9 192.13-2.9L192.13-2.9ZM226.03 0.25Q222.23 0.25 219.18-1.48 216.13-3.2 214.38-6.25 212.63-9.3 212.63-13.15L212.63-13.15Q212.63-17 214.38-20.05 216.13-23.1 219.18-24.8 222.23-26.5 226.03-26.5L226.03-26.5Q229.83-26.5 232.88-24.8 235.93-23.1 237.66-20.05 239.38-17 239.38-13.15L239.38-13.15Q239.38-9.3 237.66-6.25 235.93-3.2 232.88-1.48 229.83 0.25 226.03 0.25L226.03 0.25ZM226.03-2.9Q228.83-2.9 231.06-4.17 233.28-5.45 234.53-7.8 235.78-10.15 235.78-13.15L235.78-13.15Q235.78-16.15 234.53-18.5 233.28-20.85 231.06-22.13 228.83-23.4 226.03-23.4L226.03-23.4Q223.23-23.4 221.01-22.13 218.78-20.85 217.51-18.5 216.23-16.15 216.23-13.15L216.23-13.15Q216.23-10.15 217.51-7.8 218.78-5.45 221.01-4.17 223.23-2.9 226.03-2.9L226.03-2.9ZM268.43-34.35Q266.13-34.35 264.95-33.1 263.78-31.85 263.78-29.4L263.78-29.4 263.78-26.3 271.88-26.3 271.88-23.3 263.88-23.3 263.88 0 260.33 0 260.33-23.3 255.63-23.3 255.63-26.3 260.33-26.3 260.33-29.55Q260.33-33.15 262.4-35.25 264.48-37.35 268.28-37.35L268.28-37.35Q269.78-37.35 271.18-36.93 272.58-36.5 273.53-35.7L273.53-35.7 272.33-33.05Q270.78-34.35 268.43-34.35L268.43-34.35ZM286.97 0.25Q283.17 0.25 280.12-1.48 277.07-3.2 275.32-6.25 273.57-9.3 273.57-13.15L273.57-13.15Q273.57-17 275.32-20.05 277.07-23.1 280.12-24.8 283.17-26.5 286.97-26.5L286.97-26.5Q290.77-26.5 293.82-24.8 296.87-23.1 298.6-20.05 300.32-17 300.32-13.15L300.32-13.15Q300.32-9.3 298.6-6.25 296.87-3.2 293.82-1.48 290.77 0.25 286.97 0.25L286.97 0.25ZM286.97-2.9Q289.77-2.9 292-4.17 294.22-5.45 295.47-7.8 296.72-10.15 296.72-13.15L296.72-13.15Q296.72-16.15 295.47-18.5 294.22-20.85 292-22.13 289.77-23.4 286.97-23.4L286.97-23.4Q284.17-23.4 281.95-22.13 279.72-20.85 278.45-18.5 277.17-16.15 277.17-13.15L277.17-13.15Q277.17-10.15 278.45-7.8 279.72-5.45 281.95-4.17 284.17-2.9 286.97-2.9L286.97-2.9ZM310.97-21.15Q312.22-23.8 314.7-25.15 317.17-26.5 320.82-26.5L320.82-26.5 320.82-23.05 319.97-23.1Q315.82-23.1 313.47-20.55 311.12-18 311.12-13.4L311.12-13.4 311.12 0 307.57 0 307.57-26.3 310.97-26.3 310.97-21.15ZM359.32-26.3L362.82-26.3 349.67 3.15Q348.07 6.85 345.97 8.4 343.87 9.95 340.92 9.95L340.92 9.95Q339.02 9.95 337.37 9.35 335.72 8.75 334.52 7.55L334.52 7.55 336.17 4.9Q338.17 6.9 340.97 6.9L340.97 6.9Q342.77 6.9 344.04 5.9 345.32 4.9 346.42 2.5L346.42 2.5 347.57-0.05 335.82-26.3 339.52-26.3 349.42-3.95 359.32-26.3ZM377.81 0.25Q374.01 0.25 370.96-1.48 367.91-3.2 366.16-6.25 364.41-9.3 364.41-13.15L364.41-13.15Q364.41-17 366.16-20.05 367.91-23.1 370.96-24.8 374.01-26.5 377.81-26.5L377.81-26.5Q381.61-26.5 384.66-24.8 387.71-23.1 389.44-20.05 391.16-17 391.16-13.15L391.16-13.15Q391.16-9.3 389.44-6.25 387.71-3.2 384.66-1.48 381.61 0.25 377.81 0.25L377.81 0.25ZM377.81-2.9Q380.61-2.9 382.84-4.17 385.06-5.45 386.31-7.8 387.56-10.15 387.56-13.15L387.56-13.15Q387.56-16.15 386.31-18.5 385.06-20.85 382.84-22.13 380.61-23.4 377.81-23.4L377.81-23.4Q375.01-23.4 372.79-22.13 370.56-20.85 369.29-18.5 368.01-16.15 368.01-13.15L368.01-13.15Q368.01-10.15 369.29-7.8 370.56-5.45 372.79-4.17 375.01-2.9 377.81-2.9L377.81-2.9ZM418.56-26.3L422.11-26.3 422.11 0 418.71 0 418.71-4.8Q417.31-2.4 414.86-1.07 412.41 0.25 409.26 0.25L409.26 0.25Q404.11 0.25 401.14-2.63 398.16-5.5 398.16-11.05L398.16-11.05 398.16-26.3 401.71-26.3 401.71-11.4Q401.71-7.25 403.76-5.1 405.81-2.95 409.61-2.95L409.61-2.95Q413.76-2.95 416.16-5.48 418.56-8 418.56-12.5L418.56-12.5 418.56-26.3Z" opacity="1" transform="matrix(1,0,0,1,0,0)" fill="#fafafa" class="undefined-text-1" data-fill-palette-color="quaternary" id="text-1"></path></svg></g></svg></g></svg></g></svg></g><g transform="matrix(1,0,0,1,42.721690882219164,0)"><svg viewBox="0 0 127.71505946271878 165.05290353527297" height="165.05290353527297" width="127.71505946271878"><g><svg xmlns="http://www.w3.org/2000/svg" xmlns:xlink="http://www.w3.org/1999/xlink" version="1.1" x="0" y="0" viewBox="12.982999801635742 1 75.68599700927734 97.81300354003906" enable-background="new 0 0 100 100" xml:space="preserve" height="165.05290353527297" width="127.71505946271878" class="icon-icon-0" data-fill-palette-color="quaternary" id="icon-0"><g fill="#fafafa" data-fill-palette-color="quaternary"><polygon fill-rule="evenodd" clip-rule="evenodd" points="12.983,10.59 30.001,98.813 24.129,39.764 53.15,37.872 53.096,27.989    64.549,1 53.622,18.977  " fill="#fafafa" data-fill-palette-color="quaternary"></polygon><polygon fill-rule="evenodd" clip-rule="evenodd" points="59.389,54.548 64.549,1.007 55.809,40.723 36.197,41.768 37.767,62.23    30.001,98.813 42.058,58.914  " fill="#fafafa" data-fill-palette-color="quaternary"></polygon><polygon fill-rule="evenodd" clip-rule="evenodd" points="62.8,67.182 63.349,56.729 47.37,60.484 47.338,72.281 30.001,98.813    51.681,71.197  " fill="#fafafa" data-fill-palette-color="quaternary"></polygon><polygon fill-rule="evenodd" clip-rule="evenodd" points="65.711,62.394 80.552,57.663 82.061,45.131 66.162,47.226  " fill="#fafafa" data-fill-palette-color="quaternary"></polygon><polygon fill-rule="evenodd" clip-rule="evenodd" points="72.07,44.502 83.058,43.085 84.639,32.807 76.56,32.434 64.549,1    72.979,31.967  " fill="#fafafa" data-fill-palette-color="quaternary"></polygon><polygon fill-rule="evenodd" clip-rule="evenodd" points="87.413,31.294 88.669,21.788 79.125,19.094 64.549,1 79.032,23.437    78.61,30.437  " fill="#fafafa" data-fill-palette-color="quaternary"></polygon></g></svg></g></svg></g><g></g></svg></g></svg></g></svg></g></svg></g><defs></defs></svg><rect width="333.90454557049503" height="333.90454557049503" fill="none" stroke="none" visibility="hidden"></rect></g></svg></g></svg>